<svg xmlns="http://www.w3.org/2000/svg" xmlns:xlink="http://www.w3.org/1999/xlink" version="1.1" x="0px" y="0px" viewBox="0 0 48 60" style="enable-background:new 0 0 48 48;" xml:space="preserve"><style type="text/css">
	.st0{display:none;}
	.st1{display:inline;}
	.st2{display:inline;fill-rule:evenodd;clip-rule:evenodd;}
	.st3{display:inline;fill:#FFFFFF;}
	.st4{fill:none;stroke:#000000;stroke-width:2;stroke-linejoin:round;stroke-miterlimit:10;}
</style><g><g><path d="M24,12c-2.1,0-3.8,1.7-3.8,3.8c0,2.1,1.7,3.8,3.8,3.8c2.1,0,3.8-1.7,3.8-3.8C27.8,13.7,26.1,12,24,12z"/><path d="M24,4.2c-7.1,0-12.9,5.8-12.9,12.9C11.1,30.4,24,43.8,24,43.8s1.1-1.1,2.7-3.1C24.4,38.9,23,36.1,23,33    c0-5.5,4.5-10,10-10c1.1,0,2.1,0.2,3,0.5c0.6-2.1,0.9-4.2,0.9-6.4C36.9,9.9,31.1,4.2,24,4.2z M24,21.7c-3.2,0-5.8-2.6-5.8-5.8    c0-3.2,2.6-5.8,5.8-5.8c3.2,0,5.8,2.6,5.8,5.8C29.8,19.1,27.2,21.7,24,21.7z"/></g></g><g class="st0"><path class="st1" d="M34.3,32.9l2.1-2.1c0.4-0.4,0.4-1,0-1.4s-1-0.4-1.4,0l-2.1,2.1l-2.1-2.1c-0.4-0.4-1-0.4-1.4,0s-0.4,1,0,1.4   l2.1,2.1L29.4,35c-0.4,0.4-0.4,1,0,1.4c0.2,0.2,0.5,0.3,0.7,0.3s0.5-0.1,0.7-0.3l2.1-2.1l2.1,2.1c0.2,0.2,0.5,0.3,0.7,0.3   s0.5-0.1,0.7-0.3c0.4-0.4,0.4-1,0-1.4L34.3,32.9z"/></g><g class="st0"><g class="st1"><path d="M32,36.2c-0.3,0-0.5-0.1-0.7-0.3l-2.9-2.9c-0.4-0.4-0.4-1,0-1.4c0.4-0.4,1-0.4,1.4,0l2.2,2.2l4-4c0.4-0.4,1-0.4,1.4,0    s0.4,1,0,1.4l-4.7,4.7C32.5,36.1,32.3,36.2,32,36.2z"/></g></g><g class="st0"><g class="st1"><path d="M31.6,33.3c0-1.6,1.8-1.8,1.8-2.5c0-0.3-0.2-0.5-0.8-0.5c-0.5,0-1.1,0.3-1.5,0.7l-1.3-1.5c0.8-0.9,1.9-1.3,3.1-1.3    c1.8,0,3,0.9,3,2.2c0,2-2.2,2.2-2.2,3.2c0,0.2,0.1,0.4,0.2,0.6l-1.9,0.5C31.8,34.2,31.6,33.8,31.6,33.3z M31.6,36.4    c0-0.7,0.6-1.3,1.3-1.3c0.7,0,1.3,0.6,1.3,1.3c0,0.7-0.6,1.3-1.3,1.3C32.2,37.7,31.6,37.1,31.6,36.4z"/></g></g><g class="st0"><g class="st1"><path d="M31.6,36.5c0-0.7,0.6-1.3,1.3-1.3c0.7,0,1.3,0.6,1.3,1.3c0,0.7-0.6,1.3-1.3,1.3C32.2,37.8,31.6,37.2,31.6,36.5z     M31.9,34.4l-0.3-6.1h2.6l-0.3,6.1H31.9z"/></g></g><g class="st0"><path class="st2" d="M32.9,28.3l1.5,2.9l3.1,0.6l-2.1,2.4l0.4,3.3l-2.8-1.4l-2.8,1.4l0.4-3.3l-2.1-2.4l3.1-0.6L32.9,28.3"/></g><g><g><path d="M32.7,38.8c-3.4,0-6.1-2.7-6.1-6.1c0-3.4,2.7-6.1,6.1-6.1s6.1,2.7,6.1,6.1C38.8,36.1,36.1,38.8,32.7,38.8z M32.7,28.7    c-2.3,0-4.1,1.8-4.1,4.1s1.8,4.1,4.1,4.1s4.1-1.8,4.1-4.1S34.9,28.7,32.7,28.7z"/></g><g><rect x="37.2" y="39.7" transform="matrix(0.7071 0.7071 -0.7071 0.7071 40.6751 -16.8184)" width="7" height="2"/></g></g><g class="st0"><g class="st1"><path d="M41.8,33l-4-6l-4,6h3.1c0,2.2-1.8,4.1-4.1,4.1c-2.3,0-4-1.8-4-4.1s2.2-4.1,4.2-4.1v-2c-4,0-6.2,2.7-6.2,6.1s2.7,6.1,6,6.1    c3.4,0,6-2.7,6-6.1H41.8z"/></g></g><g class="st0"><g class="st1"><path d="M28.7,38.1c-0.6,0-1-0.4-1-1v-5c0-0.6,0.4-1,1-1s1,0.4,1,1v5C29.7,37.7,29.3,38.1,28.7,38.1z"/></g><g class="st1"><path d="M33.3,38.1c-0.6,0-1-0.4-1-1v-9c0-0.6,0.4-1,1-1s1,0.4,1,1v9C34.3,37.7,33.9,38.1,33.3,38.1z"/></g><g class="st1"><path d="M37.9,38.1c-0.6,0-1-0.4-1-1v-7c0-0.6,0.4-1,1-1s1,0.4,1,1v7C38.9,37.7,38.5,38.1,37.9,38.1z"/></g></g><g class="st0"><path class="st1" d="M37.9,32H34v-4c0-0.6-0.4-1-1-1s-1,0.4-1,1v4h-4.1c-0.6,0-1,0.4-1,1s0.4,1,1,1H32v4c0,0.6,0.4,1,1,1s1-0.4,1-1   v-4h3.9c0.6,0,1-0.4,1-1S38.5,32,37.9,32z"/></g><g class="st0"><g class="st1"><path d="M39.2,34.8h-10c-0.6,0-1-0.4-1-1s0.4-1,1-1h10c0.6,0,1,0.4,1,1S39.8,34.8,39.2,34.8z"/></g></g><g class="st0"><g class="st1"><path d="M37.3,36c-0.6-5-4.3-8.2-9.3-8.2v2c4,0,6.7,2.2,7.3,6.2h-2.9l4,6l4-6H37.3z"/></g></g><g class="st0"><circle class="st3" cx="15" cy="33" r="10"/><g class="st1"><path class="st4" d="M20,28.8c-4.7,0-8.5,3.8-8.5,8.5"/><g><polygon points="7.6,36 11.6,42 15.6,36    "/></g></g></g><g class="st0"><g class="st1"><path d="M27.3,31.8l6.3,3.7c0.2,0.1,0.3,0.1,0.5,0.1s0.3,0,0.5-0.1l6.3-3.7c0.3-0.2,0.5-0.5,0.5-0.9c0-0.4-0.2-0.7-0.5-0.9    l-6.3-3.4c-0.3-0.2-0.7-0.2-0.9,0l-6.3,3.4c-0.3,0.2-0.5,0.5-0.5,0.9C26.8,31.3,27,31.7,27.3,31.8z"/><path d="M39.9,34.4l-5.8,3.4l-5.8-3.4c-0.5-0.3-1.1-0.1-1.4,0.4c-0.3,0.5-0.1,1.1,0.4,1.4l6.3,3.7c0.2,0.1,0.3,0.1,0.5,0.1    s0.3,0,0.5-0.1l6.3-3.7c0.5-0.3,0.6-0.9,0.4-1.4C41,34.3,40.4,34.1,39.9,34.4z"/></g></g><g class="st0"><path class="st1" d="M37.2,32H37v-2.1c0-1.6-1.4-2.9-3-2.9c-1.6,0-3,1.2-3,2.9V32h0c-1.2,0-2,0.8-2,1.9l0.5,5.4   c0,0.9,0.6,1.7,2,1.7h5.4c1.2,0,2-0.8,2-1.7l0.4-5.5C39.3,32.9,38.7,32,37.2,32z M33,29.9c0-0.7,0.2-1.4,1-1.4c0.8,0,1,0.7,1,1.4   V32h-2V29.9z M35,36.5c0,0.6-0.4,1-1,1s-1-0.4-1-1v-1c0-0.6,0.4-1,1-1s1,0.4,1,1V36.5z"/></g><g class="st0"><g class="st1"><g><path d="M33.5,36c-0.3,0-0.7-0.1-1-0.2c-0.6-0.3-1.1-0.8-1.4-1.4c-0.3-0.6-0.3-1.3,0-2c0.3-0.6,0.8-1.1,1.4-1.4     c0.6-0.3,1.3-0.3,2,0c0.6,0.3,1.1,0.8,1.4,1.4c0.3,0.6,0.3,1.3,0,2l0,0c-0.3,0.6-0.8,1.1-1.4,1.4C34.2,35.9,33.8,36,33.5,36z      M33.5,32.3c-0.1,0-0.3,0-0.4,0.1c-0.3,0.1-0.5,0.3-0.6,0.6c-0.1,0.3-0.1,0.6,0,0.8s0.3,0.5,0.6,0.6c0.3,0.1,0.6,0.1,0.8,0     c0.3-0.1,0.5-0.3,0.6-0.6l0,0c0.1-0.3,0.1-0.6,0-0.8c-0.1-0.3-0.3-0.5-0.6-0.6C33.8,32.4,33.6,32.3,33.5,32.3z"/></g><g><path d="M32,40c-0.1,0-0.1,0-0.2,0c-0.6-0.2-1.2-0.4-1.7-0.7c-0.3-0.2-0.4-0.5-0.3-0.8l0.3-1.1c-0.1-0.1-0.3-0.3-0.4-0.4     l-1.1,0.3c-0.3,0.1-0.7-0.1-0.8-0.3c-0.3-0.5-0.6-1.1-0.7-1.7c-0.1-0.3,0.1-0.7,0.3-0.8l1-0.6c0-0.2,0-0.4,0-0.6l-1-0.6     c-0.3-0.2-0.4-0.5-0.4-0.8c0.2-0.6,0.4-1.2,0.7-1.7c0.2-0.3,0.5-0.4,0.8-0.3l1.1,0.3c0.1-0.1,0.3-0.3,0.4-0.4l-0.3-1.1     c-0.1-0.3,0.1-0.7,0.3-0.8c0.5-0.3,1.1-0.6,1.7-0.7c0.3-0.1,0.7,0.1,0.8,0.3l0.6,1c0.2,0,0.4,0,0.6,0l0.6-1     c0.2-0.3,0.5-0.4,0.8-0.4c0.6,0.2,1.2,0.4,1.7,0.7c0.3,0.2,0.4,0.5,0.3,0.8L37,29.5c0.1,0.1,0.3,0.3,0.4,0.4l1.1-0.3     c0.3-0.1,0.7,0.1,0.8,0.3c0.3,0.5,0.6,1.1,0.7,1.7c0.1,0.3-0.1,0.7-0.3,0.8l-1,0.6c0,0.2,0,0.4,0,0.6l1,0.6     c0.3,0.2,0.4,0.5,0.4,0.8c-0.2,0.6-0.4,1.2-0.7,1.7c-0.2,0.3-0.5,0.4-0.8,0.3l-1.1-0.3c-0.1,0.1-0.3,0.3-0.4,0.4l0.3,1.1     c0.1,0.3-0.1,0.7-0.3,0.8c-0.5,0.3-1.1,0.6-1.7,0.7c-0.3,0.1-0.7-0.1-0.8-0.3l-0.6-1c-0.2,0-0.4,0-0.6,0l-0.6,1     C32.5,39.9,32.3,40,32,40z M31.3,38.2c0.1,0,0.2,0.1,0.3,0.1l0.5-0.9c0.2-0.3,0.5-0.4,0.8-0.4c0.4,0.1,0.8,0.1,1.2,0     c0.3-0.1,0.6,0.1,0.8,0.4l0.5,0.9c0.1,0,0.2-0.1,0.3-0.1l-0.3-1c-0.1-0.3,0-0.6,0.3-0.8c0.3-0.2,0.6-0.5,0.8-0.8     c0.2-0.3,0.5-0.4,0.8-0.3l1,0.3c0-0.1,0.1-0.2,0.1-0.3l-0.9-0.5c-0.3-0.2-0.4-0.5-0.4-0.8c0.1-0.4,0.1-0.8,0-1.2     c0-0.3,0.1-0.6,0.4-0.8l0.9-0.5c0-0.1-0.1-0.2-0.1-0.3l-1,0.3c-0.3,0.1-0.6,0-0.8-0.3c-0.2-0.3-0.5-0.6-0.8-0.8     c-0.3-0.2-0.4-0.5-0.3-0.8l0.3-1c-0.1,0-0.2-0.1-0.3-0.1l-0.5,0.9c-0.2,0.3-0.5,0.4-0.8,0.4c-0.4-0.1-0.8-0.1-1.2,0     c-0.3,0-0.6-0.1-0.8-0.4l-0.5-0.9c-0.1,0-0.2,0.1-0.3,0.1l0.3,1c0.1,0.3,0,0.6-0.3,0.8c-0.3,0.2-0.6,0.5-0.8,0.8     c-0.2,0.3-0.5,0.4-0.8,0.3l-1-0.3c0,0.1-0.1,0.2-0.1,0.3l0.9,0.5c0.3,0.2,0.4,0.5,0.4,0.8c-0.1,0.4-0.1,0.8,0,1.2     c0,0.3-0.1,0.6-0.4,0.8l-0.9,0.5c0,0.1,0.1,0.2,0.1,0.3l1-0.3c0.3-0.1,0.6,0,0.8,0.3c0.2,0.3,0.5,0.6,0.8,0.8     c0.3,0.2,0.4,0.5,0.3,0.8L31.3,38.2z"/></g></g></g><g class="st0"><g class="st1"><path d="M38.4,38.9H29c-0.6,0-1.1-0.5-1.1-1.1v-1.4c0-0.5,0.3-0.9,0.7-1.1c2.3-0.9,3-1.4,3.2-1.6v0c-0.3-0.4-0.5-0.8-0.7-1.4    c-0.2-0.2-0.4-0.6-0.4-0.9c0-0.4,0-0.7,0.2-1v-1c0-1.8,1.1-2.9,2.9-2.9c1.8,0,2.9,1.1,2.9,2.9v1c0.2,0.3,0.2,0.7,0.2,1    c0,0.3-0.2,0.7-0.4,0.9c-0.2,0.5-0.4,1-0.7,1.4v0c0.2,0.2,0.9,0.6,3.2,1.6c0,0,0,0,0,0c0.4,0.2,0.7,0.6,0.7,1.1v1.4    C39.6,38.3,39.1,38.9,38.4,38.9z M29.3,37.4h8.7v-0.8c-3-1.2-3.6-1.8-3.8-2.4c0-0.1,0-0.1,0-0.2v-0.5c0-0.2,0.1-0.4,0.2-0.5    c0.3-0.3,0.5-0.7,0.6-1.2c0-0.2,0.1-0.3,0.3-0.4c0,0,0-0.1,0-0.1c0,0,0-0.1,0-0.1c-0.1-0.1-0.2-0.3-0.2-0.5v-1.2    c0-1-0.4-1.4-1.4-1.4c-1,0-1.4,0.4-1.4,1.4v1.2c0,0.2-0.1,0.3-0.2,0.5c0,0,0,0.1,0,0.1c0,0,0,0.1,0,0.1c0.1,0.1,0.2,0.2,0.3,0.4    c0.1,0.5,0.3,0.9,0.6,1.2c0.1,0.1,0.2,0.3,0.2,0.5V34c0,0.1,0,0.1,0,0.2c-0.2,0.6-0.9,1.2-3.8,2.4V37.4z"/></g></g><g class="st0"><g class="st1"><path d="M29.2,33.8v4.9l3.6,0v-3.7h1.7v3.7l3.4,0v-4.9l-4.4-3.9L29.2,33.8z"/><path d="M39.2,31.3l-1.5-1.4V27h-2v1.2L34,26.7c-0.3-0.3-0.7-0.2-1,0l-5,4.6c-0.3,0.3-0.3,0.8,0,1.1    c0.1,0.2,0.4,0.2,0.6,0.2c0.2,0,0.4-0.1,0.5-0.2l4.5-4.1l4.6,4.1c0.3,0.3,0.8,0.2,1.1-0.1S39.5,31.5,39.2,31.3z"/></g></g></svg>